<svg width="66" height="24" viewBox="0 0 66 24" fill="none" xmlns="http://www.w3.org/2000/svg">
<path fill-rule="evenodd" clip-rule="evenodd" d="M65.039 0.535351C64.8232 0.588391 16.8377 13.3739 16.8377 13.3739C15.9115 13.6295 14.9654 13.7619 14.0448 13.7667C10.3568 13.7881 7.07527 11.7756 7.10176 7.53447C7.11248 5.87471 7.62937 3.87403 8.8263 1.51996C4.59693 6.40336 0.541106 12.4599 0.500321 16.9865C0.484721 18.6898 1.03752 20.1768 2.36411 21.3036C4.27341 22.9245 6.37655 23.4968 8.46995 23.5C11.5289 23.5041 14.5664 22.2909 16.9448 21.3554C20.9504 19.7804 65.2262 0.876439 65.2262 0.876439C65.6533 0.666354 65.5731 0.403868 65.039 0.535351Z" fill="#1B1B1B"/>
</svg>
