<svg width="64" height="28" viewBox="0 0 64 28" fill="none" xmlns="http://www.w3.org/2000/svg">
<path d="M34.4844 0.0378823C34.2711 0.0378823 34.0792 0.750531 33.674 1.10686C33.2688 1.46318 32.9916 1.35066 32.7996 1.65072C32.6077 1.95078 32.7996 1.96954 32.6717 2.17583C32.5437 2.38212 31.9892 2.68219 31.9892 3.001C31.9892 3.31982 32.4797 3.54487 32.8849 3.86369C33.2901 4.1825 33.2475 4.31378 33.6527 4.44506C34.0579 4.57633 34.5057 4.20126 34.9536 4.33253C35.4014 4.46381 35.6787 4.50132 35.764 4.83889C35.8493 5.17646 35.764 5.62655 35.3161 5.57029C34.781 5.44572 34.2259 5.40134 33.674 5.43902C32.693 5.43902 31.5414 5.8141 31.5414 6.77055C31.5487 6.9246 31.5925 7.07562 31.67 7.21392C31.7475 7.35221 31.8571 7.47473 31.9916 7.57362C32.1262 7.6725 32.2827 7.74557 32.4512 7.78813C32.6198 7.83069 32.7965 7.8418 32.9702 7.82077C33.4607 7.82077 33.2261 7.22064 33.5034 6.95809C33.7806 6.69553 35.9132 8.10207 37.7686 8.10207C38.1407 8.12068 38.5127 8.06448 38.8563 7.93775C39.2 7.81101 39.5063 7.61708 39.7519 7.37067C39.7519 7.37067 39.8799 7.23939 39.9652 7.23939C40.0633 7.25577 40.1572 7.28753 40.2424 7.33316C41.2245 8.43009 42.4939 9.30157 43.9423 9.8731C45.3907 10.4446 46.975 10.6992 48.5596 10.6151C49.4702 10.6667 50.3309 10.9987 50.9908 11.5528C51.6454 12.1867 52.1268 12.9435 52.3983 13.7658C53.1079 15.2379 54.1447 16.5705 55.448 17.6853L56.8982 18.6793C56.8982 18.6793 56.8982 18.8856 56.8982 18.9981C56.8982 19.8233 56.7276 22.205 58.7535 22.3176C59.244 22.3176 59.1161 22.0362 59.1161 21.8112C59.0472 21.3864 59.106 20.9532 59.2867 20.5547C59.6279 19.9733 58.5616 19.7108 58.5829 18.4355C58.5829 17.4978 57.7086 17.6478 57.2607 16.9352C56.9565 16.6127 56.7838 16.21 56.7702 15.7912C56.9521 13.9987 56.5761 12.1965 55.6826 10.5776C55.3627 10.2213 55.1068 10.09 55.4053 9.92121C56.3127 9.49675 57.0553 8.84373 57.5379 8.04581C58.1068 6.45005 59.0679 4.98385 60.353 3.75116C60.7148 3.4983 61.1 3.27246 61.5046 3.07602C62.1855 2.83759 62.8245 2.51557 63.4026 2.11957C63.8718 1.70698 64.2557 0.844301 63.7865 0.337945C63.3173 -0.168411 62.2297 0.206667 61.8032 0.337945C58.6896 1.95078 58.2417 4.82014 57.1541 6.45173C56.8173 7.05578 56.3265 7.5833 55.7198 7.99317C55.1132 8.40304 54.4071 8.68419 53.6566 8.81472C52.6367 8.85636 51.6203 8.68274 50.6923 8.30837C49.1897 7.71473 47.8068 6.91033 46.5976 5.92662C45.9365 5.47652 40.8609 1.0881 36.7236 0.900563C36.7236 0.900563 36.2118 0.000373589 36.0838 0.000373589C35.9559 0.000373589 35.4654 0.525485 35.2521 0.600501C35.0389 0.675516 34.6976 -0.0183803 34.4844 0.000373589" fill="black"/>
<path d="M16.3145 26.2934C16.1255 26.2844 15.947 26.2143 15.8132 26.0966C15.6793 25.9789 15.5997 25.8219 15.5894 25.6557V14.4034H11.3242V26.8748C11.3241 27.17 11.456 27.4534 11.6914 27.6639C11.9268 27.8743 12.2468 27.9951 12.5824 28H20.0039C20.171 28 20.3363 27.9708 20.4904 27.914C20.6445 27.8572 20.7841 27.774 20.9013 27.6693C21.0184 27.5646 21.1106 27.4404 21.1726 27.3039C21.2345 27.1675 21.265 27.0216 21.2622 26.8748V14.3284H17.0609V25.5807C17.0507 25.7469 16.971 25.9039 16.8372 26.0216C16.7034 26.1393 16.5248 26.2094 16.3358 26.2184" fill="black"/>
<path d="M30.5177 14.3284H24.1199C23.7522 14.3284 23.3996 14.4568 23.1397 14.6854C22.8797 14.914 22.7337 15.2241 22.7337 15.5474V27.925H26.9989V16.5788C27.0043 16.4112 27.0824 16.2518 27.2172 16.1332C27.3521 16.0146 27.5334 15.9459 27.724 15.9412C27.9127 15.9411 28.0939 16.0057 28.2293 16.1213C28.3647 16.2368 28.4435 16.3942 28.4491 16.5601V27.925H32.7143V16.5601C32.7143 16.391 32.7907 16.2288 32.9267 16.1092C33.0627 15.9896 33.2471 15.9224 33.4394 15.9224C33.6317 15.9224 33.8161 15.9896 33.9521 16.1092C34.0881 16.2288 34.1645 16.391 34.1645 16.5601V27.9062H38.4297V15.5286C38.4297 15.2053 38.2837 14.8952 38.0237 14.6666C37.7637 14.438 37.4112 14.3096 37.0435 14.3096H30.6457" fill="black"/>
<path d="M8.53046 24.5118H4.26523V27.925H0V14.3284H8.53046C8.7115 14.3283 8.89074 14.36 9.05774 14.4215C9.22474 14.483 9.37616 14.5731 9.50318 14.6865C9.63021 14.8 9.7303 14.9345 9.79762 15.0823C9.86494 15.2301 9.89816 15.3882 9.89533 15.5474V23.3115C9.88983 23.6283 9.74426 23.9308 9.48948 24.1549C9.2347 24.3789 8.89073 24.5069 8.53046 24.5118ZM5.67275 16.5976C5.67559 16.5139 5.65964 16.4304 5.6258 16.3521C5.59197 16.2738 5.54091 16.2021 5.47555 16.1412C5.4102 16.0802 5.33182 16.0312 5.2449 15.9968C5.15798 15.9625 5.06422 15.9436 4.96899 15.9412H4.26523V22.8239H4.99032C5.1789 22.819 5.3579 22.7497 5.4893 22.6306C5.6207 22.5116 5.69416 22.3522 5.69408 22.1863V16.5601" fill="black"/>
<path d="M45.446 27.925V24.5118H43.9958V27.925H39.7306V15.5474C39.7306 15.2241 39.8767 14.914 40.1366 14.6854C40.3966 14.4568 40.7492 14.3284 41.1168 14.3284H48.2824C48.6463 14.3333 48.9935 14.4639 49.2488 14.692C49.5042 14.9201 49.6473 15.2273 49.6473 15.5474V27.925H45.446ZM45.446 22.8239V16.5601C45.4351 16.3976 45.354 16.2449 45.2191 16.1333C45.0843 16.0217 44.9061 15.9597 44.7209 15.96C44.5323 15.9599 44.351 16.0245 44.2156 16.14C44.0802 16.2556 44.0014 16.413 43.9958 16.5788V22.8239H45.446Z" fill="black"/>
</svg>
