<svg width="64" height="26" viewBox="0 0 64 26" fill="none" xmlns="http://www.w3.org/2000/svg">
<path d="M20.5868 22.1599V3.84008C20.5783 3.40508 20.6432 2.97244 20.7777 2.56761C20.9121 2.16278 21.1135 1.79393 21.3699 1.48273C21.6263 1.17154 21.9326 0.924292 22.2707 0.755525C22.6088 0.586759 22.972 0.499882 23.3388 0.5H23.6375C24.3843 0.5 25.1006 0.851899 25.6287 1.47829C26.1568 2.10467 26.4535 2.95423 26.4535 3.84008V22.1599C26.4535 23.0458 26.1568 23.8953 25.6287 24.5217C25.1006 25.1481 24.3843 25.5 23.6375 25.5H23.3175C22.9506 25.5001 22.5875 25.4132 22.2494 25.2445C21.9112 25.0757 21.605 24.8285 21.3486 24.5173C21.0922 24.2061 20.8908 23.8372 20.7563 23.4324C20.6219 23.0276 20.557 22.5949 20.5655 22.1599" fill="black"/>
<path d="M56.0854 2.67614L62.336 14.7207C63.68 17.251 64 18.0101 64 19.9332C63.9718 21.2916 63.52 22.5894 62.7319 23.5755C61.9438 24.5617 60.8755 25.1663 59.7334 25.2723H51.2001C50.8439 25.2962 50.4873 25.2345 50.1518 25.0907C49.8162 24.9469 49.5087 24.7242 49.2476 24.4358C48.9866 24.1474 48.7774 23.7994 48.6326 23.4126C48.4879 23.0258 48.4106 22.6084 48.4054 22.1852V21.9828C48.4111 21.1081 48.708 20.2714 49.2315 19.6553C49.755 19.0391 50.4626 18.6933 51.2001 18.6933H56.3627C56.6827 18.6933 56.8961 18.6933 56.9814 18.3897C57.036 18.2829 57.0649 18.1604 57.0649 18.0354C57.0649 17.9105 57.036 17.788 56.9814 17.6812L53.2907 10.6721C53.2907 10.6721 53.1627 10.3937 53.0561 10.3937C52.9494 10.3937 52.8641 10.5456 52.8001 10.6721L47.1681 22.1346C46.2934 23.9565 45.2694 25.2723 43.7334 25.2723H32.8322C31.7632 25.1891 30.7562 24.6479 29.9988 23.7494C29.2413 22.851 28.785 21.6566 28.7148 20.3887V3.81481C28.7148 2.94238 29.007 2.10569 29.5271 1.48879C30.0472 0.871898 30.7526 0.52533 31.4882 0.52533H31.8508C32.5864 0.52533 33.2918 0.871898 33.8119 1.48879C34.332 2.10569 34.6242 2.94238 34.6242 3.81481V17.3523C34.6182 17.4716 34.6332 17.5911 34.6684 17.7031C34.7035 17.8152 34.7579 17.9173 34.8281 18.003C34.8984 18.0887 34.9829 18.1561 35.0764 18.2009C35.1698 18.2457 35.2701 18.2669 35.3708 18.2632H40.7681C41.18 18.2859 41.5886 18.1665 41.9445 17.9195C42.3004 17.6725 42.5883 17.3085 42.7734 16.8715L50.0054 2.67614C50.3143 2.03047 50.7652 1.49641 51.31 1.13097C51.8548 0.765537 52.4731 0.582446 53.0987 0.601242C53.7096 0.586054 54.312 0.771899 54.8392 1.13816C55.3664 1.50442 55.7978 2.03677 56.0854 2.67614Z" fill="black"/>
<path d="M6.67759 16.6942C6.4739 16.6942 6.27856 16.7902 6.13453 16.9611C5.9905 17.1319 5.90959 17.3636 5.90959 17.6052V22.2104C5.90959 23.0829 5.6174 23.9196 5.0973 24.5365C4.5772 25.1533 3.8718 25.4999 3.13627 25.4999H2.7736C2.03807 25.4999 1.33267 25.1533 0.812569 24.5365C0.292471 23.9196 0.000282607 23.0829 0.000282607 22.2104V13.8096C-0.00545267 13.2927 0.0761593 12.7796 0.240303 12.3007C0.404447 11.8218 0.647799 11.3867 0.955999 11.0212C1.2642 10.6556 1.63101 10.367 2.03478 10.1723C2.43855 9.97757 2.87111 9.88077 3.30694 9.88757H14.6136C15.3491 9.88757 16.0545 10.2341 16.5746 10.851C17.0947 11.4679 17.3869 12.3046 17.3869 13.177V13.4048C17.3869 14.2772 17.0947 15.1139 16.5746 15.7308C16.0545 16.3477 15.3491 16.6942 14.6136 16.6942H6.67759Z" fill="black"/>
<path d="M2.81611 0.980743H15.9787C16.3455 0.970624 16.7102 1.04758 17.0515 1.20708C17.3928 1.36659 17.7038 1.60542 17.9662 1.90954C18.2285 2.21366 18.437 2.57692 18.5793 2.97798C18.7216 3.37904 18.7948 3.8098 18.7947 4.24492V4.44734C18.7947 4.88597 18.7219 5.3203 18.5804 5.72554C18.4388 6.13077 18.2314 6.49898 17.9699 6.80914C17.7084 7.11929 17.398 7.36532 17.0563 7.53318C16.7147 7.70103 16.3485 7.78742 15.9787 7.78742H2.81611C2.06926 7.78742 1.35301 7.43552 0.824906 6.80914C0.296806 6.18275 0.00012207 5.33319 0.00012207 4.44734V4.21961C0.002853 3.78663 0.0781862 3.35861 0.221734 2.96049C0.365281 2.56237 0.574174 2.20211 0.836248 1.90068C1.09832 1.59925 1.40834 1.36268 1.74824 1.20474C2.08815 1.0468 2.45115 0.970662 2.81611 0.980743Z" fill="#4D4D4D"/>
</svg>
