<svg width="24" height="24" viewBox="0 0 24 24" fill="none" xmlns="http://www.w3.org/2000/svg">
<path d="M7.76202 10.0625C8.31402 10.0625 8.76202 9.6145 8.76202 9.0625V5.1625C8.76202 3.419 10.1805 2 11.924 2C13.6675 2 15.0865 3.419 15.0865 5.1625V9.0625C15.0865 9.6145 15.534 10.0625 16.0865 10.0625C16.6385 10.0625 17.0865 9.6145 17.0865 9.0625V5.1625C17.087 2.316 14.771 0 11.924 0C9.07802 0 6.76202 2.316 6.76202 5.1625V9.0625C6.76202 9.6145 7.21002 10.0625 7.76202 10.0625Z" fill="black"/>
<path d="M23.395 7.81549H18.087V9.06249C18.087 10.1655 17.19 11.0625 16.087 11.0625C14.984 11.0625 14.087 10.1655 14.087 9.06249V7.81549H9.76249V9.06249C9.76249 10.1655 8.86549 11.0625 7.7625 11.0625C6.6595 11.0625 5.7625 10.1655 5.7625 9.06249V7.81549H0.395004C0.119005 7.81549 -0.0514952 8.03299 0.0140048 8.30099L3.513 22.5495C3.724 23.3505 4.567 24 5.395 24H18.395C19.224 24 20.066 23.3505 20.278 22.5495L23.776 8.30099C23.8415 8.03249 23.6715 7.81549 23.395 7.81549Z" fill="black"/>
</svg>
