<svg width="41" height="36" viewBox="0 0 41 36" fill="none" xmlns="http://www.w3.org/2000/svg">
<path d="M18.472 26.0322C18.472 28.7629 17.6613 30.9815 16.04 32.6882C14.4187 34.3095 12.2427 35.1202 9.512 35.1202C6.09867 35.1202 3.70933 34.0535 2.344 31.9202C0.978667 29.7015 0.296 27.0135 0.296 23.8562C0.296 21.4669 0.808001 18.7789 1.832 15.7922C2.856 12.7202 4.17867 9.77621 5.8 6.96021C7.42133 4.14421 9.08533 1.88288 10.792 0.176208L13.096 0.944214C11.6453 3.33355 10.3227 6.32021 9.128 9.90421C7.93333 13.4882 7.37867 16.7309 7.464 19.6322V20.0162C7.89067 19.4189 8.44533 19.0349 9.128 18.8642C9.896 18.6935 10.5787 18.6082 11.176 18.6082C13.1387 18.6082 14.8453 19.3762 16.296 20.9122C17.7467 22.4482 18.472 24.1549 18.472 26.0322ZM40.104 26.0322C40.104 28.7629 39.2933 30.9815 37.672 32.6882C36.0507 34.3095 33.8747 35.1202 31.144 35.1202C27.7307 35.1202 25.3413 34.0535 23.976 31.9202C22.6107 29.7015 21.928 27.0135 21.928 23.8562C21.928 21.4669 22.44 18.7789 23.464 15.7922C24.488 12.7202 25.8107 9.77621 27.432 6.96021C29.0533 4.14421 30.7173 1.88288 32.424 0.176208L34.728 0.944214C33.2773 3.33355 31.9547 6.32021 30.76 9.90421C29.5653 13.4882 29.0107 16.7309 29.096 19.6322V20.0162C29.5227 19.4189 30.0773 19.0349 30.76 18.8642C31.528 18.6935 32.2107 18.6082 32.808 18.6082C34.7707 18.6082 36.4773 19.3762 37.928 20.9122C39.3787 22.4482 40.104 24.1549 40.104 26.0322Z" fill="black"/>
</svg>
