<svg width="26" height="26" viewBox="0 0 26 26" fill="none" xmlns="http://www.w3.org/2000/svg">
<path d="M13 25C19.6274 25 25 19.6274 25 13C25 6.37258 19.6274 1 13 1C6.37258 1 1 6.37258 1 13C1 19.6274 6.37258 25 13 25Z" stroke="black" stroke-width="2" stroke-miterlimit="10" stroke-linecap="round"/>
<path d="M15.6435 18.0685C15.5705 17.2625 15.5985 16.7 15.5985 15.9635C15.9635 15.772 16.6175 14.551 16.728 13.5195C17.015 13.496 17.4675 13.216 17.6 12.1105C17.6715 11.517 17.3875 11.183 17.2145 11.078C17.6815 9.6735 18.6515 5.3285 15.4205 4.8795C15.088 4.2955 14.2365 4 13.13 4C8.703 4.0815 8.169 7.343 9.1395 11.078C8.967 11.183 8.683 11.517 8.754 12.1105C8.887 13.216 9.339 13.496 9.626 13.5195C9.736 14.5505 10.416 15.772 10.782 15.9635C10.782 16.7 10.8095 17.2625 10.7365 18.0685C10.106 19.7635 6.868 19.896 5 21.5305C6.953 23.497 10.118 24.9035 13.458 24.9035C16.798 24.9035 20.724 22.2665 21.3775 21.547C19.521 19.8975 16.2755 19.7695 15.6435 18.0685Z" fill="black"/>
</svg>
